<mxfile host="app.diagrams.net" agent="Mozilla/5.0 (Windows NT 10.0; Win64; x64; rv:129.0) Gecko/20100101 Firefox/129.0" version="24.7.6">
  <diagram name="Page-1" id="DdlAW6VVzzKmOKyOV751">
    <mxGraphModel dx="1593" dy="838" grid="1" gridSize="10" guides="1" tooltips="1" connect="1" arrows="1" fold="1" page="1" pageScale="1" pageWidth="827" pageHeight="1169" math="0" shadow="0">
      <root>
        <mxCell id="0" />
        <mxCell id="1" parent="0" />
        <mxCell id="Rulg2loGDiVCxnP--n9N-10" value="" style="group" vertex="1" connectable="0" parent="1">
          <mxGeometry x="510" y="105" width="380" height="400" as="geometry" />
        </mxCell>
        <mxCell id="Rulg2loGDiVCxnP--n9N-8" value="" style="endArrow=none;html=1;rounded=0;strokeColor=#CBD5E1;exitX=0.763;exitY=0.25;exitDx=0;exitDy=0;exitPerimeter=0;" edge="1" parent="Rulg2loGDiVCxnP--n9N-10" source="Rulg2loGDiVCxnP--n9N-2">
          <mxGeometry width="50" height="50" relative="1" as="geometry">
            <mxPoint x="250" y="100" as="sourcePoint" />
            <mxPoint x="20" y="100" as="targetPoint" />
          </mxGeometry>
        </mxCell>
        <mxCell id="Rulg2loGDiVCxnP--n9N-22" value="" style="group" vertex="1" connectable="0" parent="Rulg2loGDiVCxnP--n9N-10">
          <mxGeometry width="380" height="400" as="geometry" />
        </mxCell>
        <mxCell id="Rulg2loGDiVCxnP--n9N-2" value="&lt;div align=&quot;left&quot; style=&quot;font-size: 18px;&quot;&gt;&lt;font style=&quot;font-size: 18px;&quot; face=&quot;Lucida Console&quot; color=&quot;#94a3b8&quot;&gt;&lt;span style=&quot;font-size: 18px;&quot;&gt;&lt;/span&gt;&lt;span style=&quot;font-size: 18px;&quot;&gt;&lt;/span&gt;README.md&lt;/font&gt;&lt;/div&gt;&lt;div&gt;&lt;font color=&quot;#94a3b8&quot;&gt;&lt;br&gt;&lt;/font&gt;&lt;/div&gt;&lt;div style=&quot;font-size: 22px;&quot;&gt;&lt;b style=&quot;font-size: 24px;&quot;&gt;&lt;font color=&quot;#1e293b&quot; style=&quot;font-size: 24px;&quot;&gt;Folder Organization&lt;br&gt;&lt;/font&gt;&lt;/b&gt;&lt;/div&gt;&lt;div style=&quot;font-size: 22px;&quot;&gt;&lt;font color=&quot;#1e293b&quot; style=&quot;font-size: 22px;&quot;&gt;&lt;br&gt;&lt;/font&gt;&lt;/div&gt;&lt;p dir=&quot;auto&quot;&gt;&lt;font color=&quot;#2563eb&quot;&gt;&lt;code&gt;&lt;u&gt;ðŸ“‚ &lt;font face=&quot;Lucida Console&quot;&gt;docs&lt;/font&gt;&lt;/u&gt;&lt;/code&gt;&lt;/font&gt;&lt;/p&gt;&lt;p dir=&quot;auto&quot;&gt;&lt;font face=&quot;Verdana&quot; color=&quot;#1e293b&quot;&gt;&lt;code&gt;&amp;nbsp;&amp;nbsp; Project documentation&lt;/code&gt;&lt;/font&gt;&lt;/p&gt;&lt;p dir=&quot;auto&quot;&gt;&lt;font color=&quot;#2563eb&quot;&gt;&lt;code&gt;&lt;u&gt;ðŸ“‚ &lt;font face=&quot;Lucida Console&quot;&gt;src&lt;/font&gt;&lt;/u&gt;&lt;/code&gt;&lt;/font&gt;&lt;/p&gt;&lt;p dir=&quot;auto&quot;&gt;&lt;font face=&quot;Verdana&quot; color=&quot;#1e293b&quot;&gt;&lt;code&gt;&amp;nbsp;&amp;nbsp; Source code&lt;/code&gt;&lt;/font&gt;&lt;/p&gt;&lt;p dir=&quot;auto&quot;&gt;&lt;font color=&quot;#2563eb&quot;&gt;&lt;code&gt;&lt;u&gt;ðŸ“‚ &lt;font face=&quot;Lucida Console&quot;&gt;tests&lt;/font&gt;&lt;/u&gt;&lt;/code&gt;&lt;/font&gt;&lt;/p&gt;&lt;p dir=&quot;auto&quot;&gt;&lt;font face=&quot;Verdana&quot; color=&quot;#1e293b&quot;&gt;&lt;code&gt;&amp;nbsp;&amp;nbsp; Unit tests&lt;/code&gt;&lt;/font&gt;&lt;/p&gt;&lt;p dir=&quot;auto&quot;&gt;&lt;font face=&quot;Verdana&quot; color=&quot;#1e293b&quot;&gt;&lt;code&gt;&lt;br&gt;&lt;/code&gt;&lt;/font&gt;&lt;/p&gt;&lt;p dir=&quot;auto&quot;&gt;&lt;font color=&quot;#2563eb&quot;&gt;&lt;code&gt;&lt;u&gt;&lt;font face=&quot;Lucida Console&quot;&gt;&lt;br&gt;&lt;/font&gt;&lt;/u&gt;&lt;/code&gt;&lt;/font&gt;&lt;/p&gt;&lt;p dir=&quot;auto&quot;&gt;&lt;font color=&quot;#2563eb&quot;&gt;&lt;code&gt;&lt;u&gt;&lt;font face=&quot;Lucida Console&quot;&gt;&lt;br&gt;&lt;/font&gt;&lt;/u&gt;&lt;/code&gt;&lt;/font&gt;&lt;/p&gt;&lt;blockquote&gt;&lt;p dir=&quot;auto&quot;&gt;&lt;br&gt;&lt;/p&gt;&lt;/blockquote&gt;" style="rounded=1;whiteSpace=wrap;html=1;strokeColor=#cbd5e1;align=left;fontFamily=Verdana;fontSize=18;verticalAlign=top;glass=0;spacing=18;arcSize=12;absoluteArcSize=1;" vertex="1" parent="Rulg2loGDiVCxnP--n9N-22">
          <mxGeometry width="380" height="400" as="geometry" />
        </mxCell>
        <mxCell id="Rulg2loGDiVCxnP--n9N-21" value="" style="group" vertex="1" connectable="0" parent="Rulg2loGDiVCxnP--n9N-22">
          <mxGeometry x="30" y="180" height="195" as="geometry" />
        </mxCell>
        <mxCell id="Rulg2loGDiVCxnP--n9N-13" value="" style="endArrow=none;html=1;rounded=0;strokeColor=#CBD5E1;strokeWidth=3;" edge="1" parent="Rulg2loGDiVCxnP--n9N-21">
          <mxGeometry width="50" height="50" relative="1" as="geometry">
            <mxPoint y="30" as="sourcePoint" />
            <mxPoint as="targetPoint" />
          </mxGeometry>
        </mxCell>
        <mxCell id="Rulg2loGDiVCxnP--n9N-19" value="" style="endArrow=none;html=1;rounded=0;strokeColor=#CBD5E1;strokeWidth=3;" edge="1" parent="Rulg2loGDiVCxnP--n9N-21">
          <mxGeometry width="50" height="50" relative="1" as="geometry">
            <mxPoint y="115" as="sourcePoint" />
            <mxPoint y="85" as="targetPoint" />
          </mxGeometry>
        </mxCell>
        <mxCell id="Rulg2loGDiVCxnP--n9N-20" value="" style="endArrow=none;html=1;rounded=0;strokeColor=#CBD5E1;strokeWidth=3;" edge="1" parent="Rulg2loGDiVCxnP--n9N-21">
          <mxGeometry width="50" height="50" relative="1" as="geometry">
            <mxPoint y="195" as="sourcePoint" />
            <mxPoint y="165" as="targetPoint" />
          </mxGeometry>
        </mxCell>
        <mxCell id="Rulg2loGDiVCxnP--n9N-24" value="&lt;p style=&quot;line-height: 130%;&quot;&gt;&lt;/p&gt;&lt;div style=&quot;font-size: 18px;&quot; align=&quot;left&quot;&gt;&lt;font style=&quot;font-size: 18px;&quot; color=&quot;#6ee7b7&quot; face=&quot;Lucida Console&quot;&gt;&lt;b&gt;user&lt;/b&gt;&lt;/font&gt;&lt;font style=&quot;font-size: 18px;&quot; color=&quot;#f8fafc&quot; face=&quot;Lucida Console&quot;&gt;: &lt;/font&gt;&lt;font style=&quot;font-size: 18px;&quot; color=&quot;#93c5fd&quot; face=&quot;Lucida Console&quot;&gt;&lt;b&gt;~/my-project&lt;/b&gt;&lt;/font&gt;&lt;font style=&quot;font-size: 18px;&quot; color=&quot;#f8fafc&quot; face=&quot;Lucida Console&quot;&gt;$ ls&lt;br&gt;&lt;/font&gt;&lt;/div&gt;&lt;div style=&quot;font-size: 18px;&quot; align=&quot;left&quot;&gt;&lt;font style=&quot;font-size: 18px;&quot; color=&quot;#f8fafc&quot; face=&quot;Lucida Console&quot;&gt;docs&lt;/font&gt;&lt;/div&gt;&lt;div style=&quot;font-size: 18px;&quot; align=&quot;left&quot;&gt;&lt;font style=&quot;font-size: 18px;&quot; color=&quot;#f8fafc&quot; face=&quot;Lucida Console&quot;&gt;src&lt;/font&gt;&lt;/div&gt;&lt;div style=&quot;font-size: 18px;&quot; align=&quot;left&quot;&gt;&lt;font style=&quot;font-size: 18px;&quot; color=&quot;#f8fafc&quot; face=&quot;Lucida Console&quot;&gt;tests&lt;br&gt;&lt;/font&gt;&lt;/div&gt;&lt;p&gt;&lt;/p&gt;" style="rounded=0;whiteSpace=wrap;html=1;fillColor=#1e293b;align=left;strokeWidth=16;perimeterSpacing=0;strokeColor=#1E293B;verticalAlign=middle;" vertex="1" parent="1">
          <mxGeometry x="70" y="270" width="300" height="90" as="geometry" />
        </mxCell>
        <mxCell id="Rulg2loGDiVCxnP--n9N-25" value="" style="endArrow=classic;html=1;rounded=0;entryX=0;entryY=0.538;entryDx=0;entryDy=0;entryPerimeter=0;strokeWidth=5;strokeColor=#64748b;" edge="1" parent="1">
          <mxGeometry width="50" height="50" relative="1" as="geometry">
            <mxPoint x="400" y="320" as="sourcePoint" />
            <mxPoint x="480" y="320.19999999999993" as="targetPoint" />
          </mxGeometry>
        </mxCell>
      </root>
    </mxGraphModel>
  </diagram>
</mxfile>
